<?xml version="1.0" encoding="UTF-8"?>
<!DOCTYPE svg PUBLIC "-//W3C//DTD SVG 1.1//EN" "http://www.w3.org/Graphics/SVG/1.1/DTD/svg11.dtd">
<!-- Creator: CorelDRAW X7 -->
<svg xmlns="http://www.w3.org/2000/svg" xml:space="preserve" width="210mm" height="297mm" version="1.1" style="shape-rendering:geometricPrecision; text-rendering:geometricPrecision; image-rendering:optimizeQuality; fill-rule:evenodd; clip-rule:evenodd"
viewBox="0 0 21000 29700"
 xmlns:xlink="http://www.w3.org/1999/xlink">
 <defs>
  <style type="text/css">
   <![CDATA[
    .fil0 {fill:#03A49B}
    .fil2 {fill:#2BAADC}
    .fil3 {fill:#F3629D}
    .fil1 {fill:#F55252}
    .fil4 {fill:#FDFFFE}
   ]]>
  </style>
 </defs>
 <g id="Layer_x0020_1">
  <metadata id="CorelCorpID_0Corel-Layer"/>
  <g id="_2100385699648">
   <path class="fil0" d="M4562 9564c-1,-45 0,-90 0,-134 -1,-66 -11,-71 24,-110 28,-31 96,-117 127,-137 22,13 11,6 28,24 152,167 128,94 123,358l-302 -1zm151 -569c-17,9 -332,313 -350,362 110,69 76,128 79,328l541 -2c5,-68 0,-143 1,-212 1,-82 49,-68 77,-126 -17,-27 -320,-337 -348,-350z"/>
   <path class="fil1" d="M4722 10191c-26,-11 -209,-194 -217,-215 -25,-66 28,-128 94,-111 49,14 70,77 123,95 48,-29 78,-91 128,-97 58,-7 108,51 84,109 -9,24 -184,193 -212,219zm0 170c27,-16 306,-292 326,-350 34,-99 -7,-188 -80,-235 -129,-85 -226,17 -253,14 -21,-2 -59,-42 -121,-46 -150,-11 -258,131 -205,271 21,58 303,336 333,346z"/>
   <path class="fil2" d="M5236 10243c2,-46 15,-47 25,-81 12,-42 -3,-48 -9,-84 -11,-61 17,-116 45,-149 67,-79 202,-90 278,-7 85,93 57,219 -22,280 -106,83 -180,7 -234,19 -24,5 -49,17 -83,22zm469 117c6,-66 -36,-81 -9,-134 22,-45 37,-54 48,-113 56,-294 -282,-485 -513,-293 -121,100 -139,330 -13,452 53,51 131,96 232,92 65,-2 87,-24 130,-33 51,-11 70,30 125,29z"/>
   <path class="fil3" d="M5447 9187c257,18 240,388 -14,385 -103,-1 -187,-80 -187,-193 0,-118 70,-159 151,-187l33 -18 -65 -88c-73,2 -149,78 -173,112 -39,54 -66,133 -55,223 43,350 566,349 606,-4 19,-170 -110,-330 -237,-329 -18,30 -48,58 -59,99z"/>
   <path class="fil4" d="M5236 10243c34,-5 59,-17 83,-22 54,-12 128,64 234,-19 79,-61 107,-187 22,-280 -76,-83 -211,-72 -278,7 -28,33 -56,88 -45,149 6,36 21,42 9,84 -10,34 -23,35 -25,81z"/>
   <path class="fil4" d="M4562 9564l302 1c5,-264 29,-191 -123,-358 -17,-18 -6,-11 -28,-24 -31,20 -99,106 -127,137 -35,39 -25,44 -24,110 0,44 -1,89 0,134z"/>
   <path class="fil4" d="M4722 10191c28,-26 203,-195 212,-219 24,-58 -26,-116 -84,-109 -50,6 -80,68 -128,97 -53,-18 -74,-81 -123,-95 -66,-17 -119,45 -94,111 8,21 191,204 217,215z"/>
   <path class="fil3" d="M5350 9015c9,26 70,116 91,125 26,-26 78,-93 86,-125 -50,-49 -121,-53 -177,0z"/>
  </g>
 </g>
</svg>
